<svg width="18" height="19" viewBox="0 0 18 19" fill="none" xmlns="http://www.w3.org/2000/svg">
<path d="M15.1875 5.28125C15.1875 6.98988 12.4173 8.375 9 8.375C5.58274 8.375 2.8125 6.98988 2.8125 5.28125M15.1875 5.28125C15.1875 3.57262 12.4173 2.1875 9 2.1875C5.58274 2.1875 2.8125 3.57262 2.8125 5.28125M15.1875 5.28125V13.7188C15.1875 15.4274 12.4173 16.8125 9 16.8125C5.58274 16.8125 2.8125 15.4274 2.8125 13.7188V5.28125M15.1875 5.28125V8.09375M2.8125 5.28125V8.09375M15.1875 8.09375V10.9062C15.1875 12.6149 12.4173 14 9 14C5.58274 14 2.8125 12.6149 2.8125 10.9062V8.09375M15.1875 8.09375C15.1875 9.80238 12.4173 11.1875 9 11.1875C5.58274 11.1875 2.8125 9.80238 2.8125 8.09375" stroke="#262626" stroke-width="1.5" stroke-linecap="round" stroke-linejoin="round"/>
</svg>
