<svg width="18" height="19" viewBox="0 0 18 19" fill="none" xmlns="http://www.w3.org/2000/svg">
<path d="M6.75 9.5H9.5625M6.75 11.75H9.5625M6.75 14H9.5625M11.8125 14.5625H13.5C14.432 14.5625 15.1875 13.807 15.1875 12.875V5.08116C15.1875 4.22993 14.5538 3.50761 13.7054 3.43721C13.4255 3.41397 13.1446 3.39394 12.8629 3.37714M8.51214 3.37714C8.46362 3.53451 8.4375 3.70171 8.4375 3.875C8.4375 4.18566 8.68934 4.4375 9 4.4375H12.375C12.6857 4.4375 12.9375 4.18566 12.9375 3.875C12.9375 3.70171 12.9114 3.53451 12.8629 3.37714M8.51214 3.37714C8.72457 2.68818 9.36631 2.1875 10.125 2.1875H11.25C12.0087 2.1875 12.6504 2.68818 12.8629 3.37714M8.51214 3.37714C8.2304 3.39394 7.94953 3.41397 7.66956 3.43721C6.82124 3.50761 6.1875 4.22993 6.1875 5.08117V6.6875M6.1875 6.6875H3.65625C3.19026 6.6875 2.8125 7.06526 2.8125 7.53125V15.9688C2.8125 16.4347 3.19026 16.8125 3.65625 16.8125H10.9688C11.4347 16.8125 11.8125 16.4347 11.8125 15.9688V7.53125C11.8125 7.06526 11.4347 6.6875 10.9688 6.6875H6.1875ZM5.0625 9.5H5.06813V9.50563H5.0625V9.5ZM5.0625 11.75H5.06813V11.7556H5.0625V11.75ZM5.0625 14H5.06813V14.0056H5.0625V14Z" stroke="#262626" stroke-width="1.5" stroke-linecap="round" stroke-linejoin="round"/>
</svg>
