<svg width="24" height="24" viewBox="0 0 24 24" fill="none" xmlns="http://www.w3.org/2000/svg">
<rect x="0.5" y="0.5" width="23" height="23" rx="6" fill="#F4D325"/>
<path d="M15.0385 7.30417L16.0932 6.24948C16.5509 5.79184 17.2929 5.79184 17.7505 6.24948C18.2082 6.70713 18.2082 7.44912 17.7505 7.90677L11.1139 14.5434C10.7834 14.8738 10.3759 15.1167 9.92806 15.2501L8.25 15.75L8.74986 14.072C8.88327 13.6241 9.12615 13.2166 9.45658 12.8861L15.0385 7.30417ZM15.0385 7.30417L16.6875 8.95312M15.75 13.25V16.2187C15.75 16.9954 15.1204 17.625 14.3438 17.625H7.78125C7.0046 17.625 6.375 16.9954 6.375 16.2187V9.65624C6.375 8.87959 7.0046 8.24999 7.78125 8.24999H10.75" stroke="#FAFAF6" stroke-width="1.5" stroke-linecap="round" stroke-linejoin="round"/>
</svg>
