<svg width="16" height="15" viewBox="0 0 16 15" fill="none" xmlns="http://www.w3.org/2000/svg">
<path fill-rule="evenodd" clip-rule="evenodd" d="M2.82505 0.300049C1.70667 0.300049 0.800049 1.20667 0.800049 2.32505V4.57505C0.800049 5.69343 1.70667 6.60005 2.82505 6.60005H5.07505C6.19343 6.60005 7.10005 5.69343 7.10005 4.57505V2.32505C7.10005 1.20667 6.19343 0.300049 5.07505 0.300049H2.82505ZM2.82505 8.40005C1.70667 8.40005 0.800049 9.30667 0.800049 10.425V12.675C0.800049 13.7934 1.70667 14.7 2.82505 14.7H5.07505C6.19343 14.7 7.10005 13.7934 7.10005 12.675V10.425C7.10005 9.30667 6.19343 8.40005 5.07505 8.40005H2.82505ZM10.925 0.300049C9.80667 0.300049 8.90005 1.20667 8.90005 2.32505V4.57505C8.90005 5.69343 9.80667 6.60005 10.925 6.60005H13.175C14.2934 6.60005 15.2 5.69343 15.2 4.57505V2.32505C15.2 1.20667 14.2934 0.300049 13.175 0.300049H10.925ZM10.925 8.40005C9.80667 8.40005 8.90005 9.30667 8.90005 10.425V12.675C8.90005 13.7934 9.80667 14.7 10.925 14.7H13.175C14.2934 14.7 15.2 13.7934 15.2 12.675V10.425C15.2 9.30667 14.2934 8.40005 13.175 8.40005H10.925Z" fill="#0F172A"/>
</svg>
