<svg width="18" height="19" viewBox="0 0 18 19" fill="none" xmlns="http://www.w3.org/2000/svg">
<path d="M11.25 14.8457C11.8747 15.0275 12.5353 15.125 13.2187 15.125C14.3278 15.125 15.3769 14.8682 16.3098 14.4109C16.3116 14.3679 16.3125 14.3247 16.3125 14.2812C16.3125 12.5726 14.9273 11.1875 13.2187 11.1875C12.1552 11.1875 11.217 11.7241 10.6602 12.5414M11.25 14.8457V14.8438C11.25 14.0091 11.0361 13.2244 10.6602 12.5414M11.25 14.8457C11.25 14.8724 11.2498 14.8991 11.2493 14.9257C9.85302 15.7664 8.21735 16.25 6.46875 16.25C4.72014 16.25 3.08448 15.7664 1.68819 14.9257C1.68773 14.8985 1.6875 14.8711 1.6875 14.8438C1.6875 12.2031 3.82814 10.0625 6.46875 10.0625C8.27469 10.0625 9.84677 11.0637 10.6602 12.5414M9 5.28125C9 6.67922 7.86672 7.8125 6.46875 7.8125C5.07078 7.8125 3.9375 6.67922 3.9375 5.28125C3.9375 3.88328 5.07078 2.75 6.46875 2.75C7.86672 2.75 9 3.88328 9 5.28125ZM15.1875 6.96875C15.1875 8.05606 14.3061 8.9375 13.2187 8.9375C12.1314 8.9375 11.25 8.05606 11.25 6.96875C11.25 5.88144 12.1314 5 13.2187 5C14.3061 5 15.1875 5.88144 15.1875 6.96875Z" stroke="#262626" stroke-width="1.5" stroke-linecap="round" stroke-linejoin="round"/>
</svg>
