<svg width="712" height="623" viewBox="0 0 712 623" fill="none" xmlns="http://www.w3.org/2000/svg">
<g clip-path="url(#clip0_67_1339)">
<path d="M549.557 602.028L539.437 605.467L521.719 566.971L536.656 561.896L549.557 602.028Z" fill="#FFB8B8"/>
<path d="M531.253 604.951L550.77 598.318L554.831 610.952L523.027 621.761C522.494 620.101 522.283 618.351 522.408 616.608C522.533 614.865 522.99 613.165 523.754 611.604C524.518 610.043 525.573 608.652 526.86 607.51C528.147 606.369 529.64 605.499 531.253 604.951Z" fill="#2F2E41"/>
<path d="M482.796 611.585L472.138 611.584L467.068 569.316L482.798 569.317L482.796 611.585Z" fill="#FFB8B8"/>
<path d="M464.525 608.453H485.08V621.76H451.583C451.583 620.012 451.918 618.282 452.568 616.668C453.218 615.053 454.172 613.586 455.373 612.351C456.575 611.115 458.002 610.135 459.572 609.466C461.142 608.798 462.825 608.453 464.525 608.453Z" fill="#2F2E41"/>
<path d="M472.945 454.682L472.401 457.155C465.058 490.593 462.442 539.246 464.636 573.451L466.33 599.874C466.388 600.779 466.779 601.628 467.424 602.248C468.068 602.869 468.918 603.214 469.8 603.214H482.578C483.43 603.214 484.252 602.892 484.889 602.31C485.525 601.728 485.932 600.926 486.032 600.056L495.949 513.386C496.042 512.574 496.403 511.819 496.972 511.247C497.54 510.675 498.283 510.321 499.075 510.244C499.867 510.167 500.66 510.372 501.323 510.824C501.986 511.275 502.479 511.947 502.718 512.727L528.421 591.048C528.632 591.735 529.04 592.341 529.592 592.785C530.144 593.23 530.814 593.493 531.513 593.539L551.031 594.834C551.595 594.871 552.158 594.767 552.674 594.53C553.189 594.293 553.641 593.931 553.99 593.475C554.338 593.018 554.574 592.481 554.676 591.91C554.777 591.339 554.742 590.751 554.574 590.198L542.825 556.984C533.747 527.177 528.867 481.886 528.334 450.656C528.326 450.163 528.219 449.678 528.019 449.23C527.819 448.782 527.532 448.381 527.174 448.053C526.817 447.724 526.397 447.475 525.942 447.322C525.486 447.168 525.005 447.113 524.528 447.16L476.007 451.911C475.277 451.982 474.589 452.289 474.039 452.786C473.489 453.284 473.106 453.948 472.945 454.682Z" fill="#2F2E41"/>
<path d="M501.356 315.842C513.149 315.842 522.709 306.013 522.709 293.888C522.709 281.764 513.149 271.935 501.356 271.935C489.564 271.935 480.004 281.764 480.004 293.888C480.004 306.013 489.564 315.842 501.356 315.842Z" fill="#A0616A"/>
<path d="M487.34 461.875C483.088 461.866 478.838 461.635 474.608 461.184C473.25 461.032 472.003 460.34 471.134 459.255C470.265 458.17 469.844 456.779 469.959 455.379L477.239 383.062C478.995 362.607 481.707 342.862 495.43 326.139C495.896 325.572 496.471 325.111 497.12 324.784C497.768 324.456 498.475 324.271 499.196 324.238L499.712 324.218C505.125 323.986 507.619 324.188 508.321 324.911L512.097 328.736C535.12 346.242 536.077 457.145 530.405 454.96C529.307 454.539 516.204 454.962 515.292 455.601C507.896 460.785 496.009 461.874 487.34 461.875Z" fill="#1E40AF"/>
<path d="M403.564 421.734C404.108 420.545 404.898 419.493 405.88 418.652C406.862 417.811 408.012 417.201 409.247 416.866C410.483 416.531 411.775 416.479 413.033 416.713C414.29 416.946 415.483 417.461 416.526 418.22L441.793 399.636L442.406 416.222L418.318 431.327C416.962 433.045 415.04 434.191 412.916 434.549C410.793 434.906 408.616 434.451 406.797 433.269C404.978 432.086 403.645 430.259 403.049 428.133C402.453 426.007 402.637 423.731 403.564 421.734Z" fill="#A0616A"/>
<path d="M428.658 426.638L420.1 411.149L498.052 353.359C499.811 352.055 501.813 351.137 503.933 350.665C506.052 350.192 508.243 350.174 510.37 350.611C512.497 351.048 514.513 351.932 516.292 353.206C518.072 354.481 519.576 356.119 520.712 358.018C521.848 359.918 522.591 362.037 522.894 364.245C523.197 366.453 523.054 368.702 522.474 370.85C521.894 372.999 520.889 375.001 519.522 376.732C518.155 378.463 516.456 379.886 514.53 380.912L428.658 426.638Z" fill="#1E40AF"/>
<path d="M510.95 312.449C511.673 313.183 512.629 313.623 513.642 313.69C514.656 313.756 515.658 313.445 516.467 312.813C521.499 308.977 525.917 304.203 528.531 298.38C531.527 291.708 531.861 283.52 528.249 277.178C525.196 271.817 519.804 268.358 514.43 265.518C512.344 264.307 510.096 263.416 507.759 262.874C505.397 262.338 502.925 262.748 500.846 264.021C499.829 264.676 499.028 265.632 498.547 266.762C498.067 267.893 497.928 269.146 498.151 270.359C495.569 267.331 492.263 265.049 488.56 263.739C486.228 262.801 483.675 262.611 481.236 263.193C477.825 264.188 475.336 267.303 473.974 270.668C472.873 273.227 472.493 276.053 472.877 278.824C473.079 280.203 473.56 281.522 474.289 282.698C475.019 283.873 475.98 284.878 477.111 285.648C479.93 287.442 483.527 287.312 486.765 286.579C490.003 285.847 493.137 284.572 496.438 284.25C499.739 283.928 503.414 284.774 505.423 287.486C506.837 289.396 507.201 291.891 507.518 294.269L509.17 306.639C509.305 308.428 509.749 310.179 510.482 311.808C510.609 312.042 510.766 312.258 510.95 312.449Z" fill="#2F2E41"/>
<path d="M557.019 466.269C555.983 465.5 555.124 464.506 554.502 463.358C553.88 462.21 553.51 460.936 553.419 459.626C553.328 458.315 553.517 457 553.974 455.772C554.43 454.545 555.143 453.436 556.062 452.522L542.981 423.551L558.947 426.004L568.921 453.14C570.311 454.829 571.051 456.983 570.999 459.194C570.948 461.406 570.109 463.522 568.642 465.14C567.175 466.758 565.182 467.767 563.039 467.975C560.897 468.183 558.755 467.576 557.019 466.269Z" fill="#A0616A"/>
<path d="M565.766 435.494L550.702 444.292L494.494 364.145C493.226 362.337 492.334 360.279 491.874 358.1C491.414 355.92 491.396 353.667 491.821 351.481C492.247 349.294 493.106 347.222 494.346 345.392C495.585 343.562 497.179 342.015 499.026 340.847C500.873 339.679 502.935 338.916 505.083 338.604C507.23 338.292 509.417 338.439 511.506 339.036C513.596 339.632 515.544 340.666 517.227 342.071C518.911 343.476 520.295 345.223 521.292 347.203L565.766 435.494Z" fill="#1E40AF"/>
<path d="M428.551 147.735H425.229V54.1605C425.229 39.7963 419.679 26.0203 409.8 15.8633C399.921 5.70619 386.522 7.11175e-06 372.551 0H179.724C165.753 0 152.354 5.70618 142.475 15.8632C132.596 26.0203 127.047 39.7963 127.047 54.1605V567.526C127.047 581.891 132.596 595.667 142.475 605.824C152.354 615.981 165.753 621.687 179.724 621.687H372.551C386.522 621.687 399.921 615.98 409.799 605.823C419.678 595.666 425.228 581.89 425.228 567.526V214.343H428.55L428.551 147.735Z" fill="#E6E6E6"/>
<path d="M374.677 14.0854H349.509C350.666 17.0034 351.108 20.1692 350.795 23.304C350.482 26.4389 349.424 29.4465 347.715 32.0619C346.005 34.6774 343.696 36.8203 340.991 38.302C338.286 39.7836 335.268 40.5586 332.203 40.5584H221.734C218.669 40.5583 215.651 39.7832 212.946 38.3014C210.241 36.8196 207.933 34.6766 206.223 32.0612C204.513 29.4459 203.456 26.4383 203.143 23.3036C202.83 20.1689 203.272 17.0032 204.429 14.0854H180.921C170.487 14.0854 160.481 18.3468 153.104 25.932C145.726 33.5172 141.582 43.8049 141.582 54.532V567.152C141.582 577.879 145.726 588.167 153.104 595.752C160.481 603.338 170.487 607.599 180.921 607.599H374.677C385.11 607.599 395.116 603.338 402.494 595.752C409.871 588.167 414.016 577.879 414.016 567.152V54.5312C414.016 43.8042 409.871 33.5167 402.493 25.9317C395.116 18.3466 385.11 14.0854 374.677 14.0854Z" fill="white"/>
<path d="M277.799 317.31C259.745 317.31 242.096 311.806 227.085 301.493C212.074 291.18 200.374 276.523 193.465 259.373C186.556 242.224 184.748 223.354 188.271 205.148C191.793 186.943 200.487 170.22 213.253 157.094C226.019 143.969 242.283 135.03 259.99 131.409C277.697 127.788 296.051 129.646 312.731 136.75C329.41 143.853 343.667 155.882 353.697 171.316C363.727 186.75 369.081 204.896 369.081 223.458C369.053 248.34 359.427 272.196 342.315 289.79C325.202 307.385 302 317.282 277.799 317.31ZM277.799 131.393C260.089 131.393 242.776 136.793 228.051 146.909C213.326 157.025 201.849 171.404 195.071 188.226C188.294 205.049 186.521 223.56 189.976 241.419C193.431 259.277 201.959 275.682 214.482 288.557C227.005 301.433 242.96 310.201 260.33 313.753C277.699 317.306 295.704 315.482 312.065 308.514C328.427 301.546 342.412 289.746 352.251 274.606C362.09 259.466 367.342 241.666 367.342 223.458C367.315 199.049 357.873 175.648 341.086 158.389C324.299 141.129 301.539 131.421 277.799 131.393Z" fill="#3F3D56"/>
<path d="M311.325 196.194C319.143 189.402 323.891 178.673 322.646 168.228C321.401 157.783 313.687 148.181 303.682 145.963C293.677 143.745 282.272 149.885 279.233 159.933C277.561 140.56 275.634 120.375 265.616 103.877C256.545 88.9379 240.833 78.2488 223.806 76.3364C206.779 74.4241 188.851 81.6467 178.231 95.4646C167.612 109.283 165.012 129.371 172.449 145.235C177.928 156.922 188.023 165.619 198.599 172.695C232.341 195.269 274.197 202.896 314.025 196.87L311.325 196.194Z" fill="#E6E6E6"/>
<path d="M195.07 82.047C209.119 93.8129 222.009 106.972 233.551 121.335C251.614 143.735 266.231 168.849 276.893 195.803C277.673 197.77 274.568 198.625 273.796 196.681C256.352 152.875 228.504 114.265 192.799 84.3819C191.195 83.0395 193.479 80.7157 195.07 82.047Z" fill="white"/>
<path d="M199.85 409.374C205.132 409.374 209.413 404.972 209.413 399.542C209.413 394.112 205.132 389.71 199.85 389.71C194.569 389.71 190.288 394.112 190.288 399.542C190.288 404.972 194.569 409.374 199.85 409.374Z" fill="#3F3D56"/>
<path d="M358.355 406.693H236.646C234.801 406.693 233.032 405.94 231.728 404.599C230.424 403.258 229.691 401.439 229.691 399.542C229.691 397.646 230.424 395.827 231.728 394.486C233.032 393.145 234.801 392.392 236.646 392.392H358.355C360.2 392.392 361.969 393.145 363.273 394.486C364.577 395.827 365.31 397.646 365.31 399.542C365.31 401.439 364.577 403.258 363.273 404.599C361.969 405.94 360.2 406.693 358.355 406.693Z" fill="#CCCCCC"/>
<path d="M320.607 406.779H236.142C234.276 406.779 232.485 406.017 231.165 404.659C229.845 403.302 229.104 401.462 229.104 399.542C229.104 397.623 229.845 395.782 231.165 394.425C232.485 393.068 234.276 392.305 236.142 392.305H320.607C322.473 392.305 324.264 393.068 325.584 394.425C326.904 395.782 327.645 397.623 327.645 399.542C327.645 401.462 326.904 403.302 325.584 404.659C324.264 406.017 322.473 406.779 320.607 406.779Z" fill="#1E40AF"/>
<path d="M199.85 452.278C205.132 452.278 209.413 447.876 209.413 442.446C209.413 437.016 205.132 432.614 199.85 432.614C194.569 432.614 190.288 437.016 190.288 442.446C190.288 447.876 194.569 452.278 199.85 452.278Z" fill="#3F3D56"/>
<path d="M358.355 449.597H236.646C234.801 449.597 233.032 448.844 231.728 447.503C230.424 446.162 229.691 444.343 229.691 442.446C229.691 440.55 230.424 438.731 231.728 437.39C233.032 436.049 234.801 435.296 236.646 435.296H358.355C360.2 435.296 361.969 436.049 363.273 437.39C364.577 438.731 365.31 440.55 365.31 442.446C365.31 444.343 364.577 446.162 363.273 447.503C361.969 448.844 360.2 449.597 358.355 449.597Z" fill="#CCCCCC"/>
<path d="M199.85 495.182C205.132 495.182 209.413 490.78 209.413 485.35C209.413 479.92 205.132 475.518 199.85 475.518C194.569 475.518 190.288 479.92 190.288 485.35C190.288 490.78 194.569 495.182 199.85 495.182Z" fill="#3F3D56"/>
<path d="M358.355 492.501H236.646C234.801 492.501 233.032 491.747 231.728 490.406C230.424 489.065 229.691 487.247 229.691 485.35C229.691 483.454 230.424 481.635 231.728 480.294C233.032 478.953 234.801 478.199 236.646 478.199H358.355C360.2 478.199 361.969 478.953 363.273 480.294C364.577 481.635 365.31 483.454 365.31 485.35C365.31 487.247 364.577 489.065 363.273 490.406C361.969 491.747 360.2 492.501 358.355 492.501Z" fill="#CCCCCC"/>
<path d="M292.787 449.683H236.142C234.276 449.683 232.485 448.921 231.165 447.564C229.845 446.206 229.104 444.366 229.104 442.446C229.104 440.527 229.845 438.686 231.165 437.329C232.485 435.972 234.276 435.209 236.142 435.209H292.787C294.654 435.209 296.444 435.972 297.764 437.329C299.084 438.686 299.826 440.527 299.826 442.446C299.826 444.366 299.084 446.206 297.764 447.564C296.444 448.921 294.654 449.683 292.787 449.683Z" fill="#1E40AF"/>
<path d="M343.21 492.587H236.142C234.276 492.587 232.485 491.825 231.165 490.467C229.845 489.11 229.104 487.269 229.104 485.35C229.104 483.431 229.845 481.59 231.165 480.233C232.485 478.876 234.276 478.113 236.142 478.113H343.21C345.077 478.113 346.867 478.876 348.187 480.233C349.507 481.59 350.249 483.431 350.249 485.35C350.249 487.269 349.507 489.11 348.187 490.467C346.867 491.825 345.077 492.587 343.21 492.587Z" fill="#1E40AF"/>
<path d="M326.129 208.864H314.18V172.562C314.181 171.496 314.594 170.473 315.327 169.719C316.061 168.965 317.055 168.541 318.092 168.54H322.217C323.254 168.541 324.248 168.965 324.982 169.719C325.715 170.473 326.128 171.496 326.129 172.562V208.864Z" fill="#3F3D56"/>
<path d="M333.373 270.639H219.158L218.748 204.455C218.743 203.432 218.939 202.419 219.322 201.476C219.706 200.533 220.27 199.678 220.981 198.963L249.673 170.23C251.034 168.862 252.858 168.09 254.761 168.075L302.782 167.624C303.871 167.617 304.948 167.856 305.937 168.324C306.926 168.792 307.803 169.478 308.506 170.333L308.51 170.338L331.319 199.097C332.646 200.773 333.371 202.867 333.373 205.028L333.373 270.639Z" fill="#3F3D56"/>
<path d="M333.373 270.64H271.994V211.324C271.995 209.517 272.621 207.769 273.762 206.394L300.43 174.248C301.123 173.411 301.984 172.739 302.955 172.278C303.926 171.818 304.982 171.58 306.052 171.581H306.08C307.153 171.584 308.214 171.828 309.186 172.296C310.159 172.765 311.02 173.445 311.71 174.291L331.641 198.687C332.759 200.057 333.372 201.787 333.373 203.574V270.64Z" fill="#1E40AF"/>
<path d="M307.337 247.857H298.456C297.88 247.857 297.328 247.621 296.92 247.202C296.513 246.783 296.284 246.215 296.283 245.623V237.967C296.284 237.375 296.513 236.807 296.92 236.388C297.328 235.969 297.88 235.734 298.456 235.733H307.337C307.913 235.734 308.465 235.969 308.873 236.388C309.28 236.807 309.509 237.375 309.51 237.967V245.623C309.509 246.215 309.28 246.783 308.873 247.202C308.465 247.621 307.913 247.857 307.337 247.857Z" fill="white"/>
<path d="M307.337 228.241H298.456C297.88 228.24 297.328 228.005 296.92 227.586C296.513 227.167 296.284 226.599 296.283 226.007V218.529C296.284 217.937 296.513 217.369 296.92 216.95C297.328 216.531 297.88 216.296 298.456 216.295H307.337C307.913 216.296 308.465 216.531 308.873 216.95C309.28 217.369 309.509 217.937 309.51 218.529V226.007C309.509 226.599 309.28 227.167 308.873 227.586C308.465 228.005 307.913 228.24 307.337 228.241Z" fill="white"/>
<path d="M252.419 244.877H243.538C242.962 244.877 242.41 244.641 242.002 244.222C241.595 243.803 241.366 243.235 241.365 242.643V234.988C241.366 234.396 241.595 233.828 242.002 233.409C242.41 232.99 242.962 232.754 243.538 232.753H252.419C252.995 232.754 253.547 232.99 253.955 233.409C254.362 233.828 254.591 234.396 254.592 234.988V242.643C254.591 243.235 254.362 243.803 253.955 244.222C253.547 244.641 252.995 244.877 252.419 244.877Z" fill="white"/>
<path d="M252.419 225.261H243.538C242.962 225.26 242.41 225.025 242.002 224.606C241.595 224.187 241.366 223.619 241.365 223.026V215.55C241.366 214.957 241.595 214.389 242.002 213.97C242.41 213.552 242.962 213.316 243.538 213.315H252.419C252.995 213.316 253.547 213.552 253.955 213.97C254.362 214.389 254.591 214.957 254.592 215.55V223.026C254.591 223.619 254.362 224.187 253.955 224.606C253.547 225.025 252.995 225.26 252.419 225.261Z" fill="white"/>
<path d="M355.477 271.414H200.121C199.89 271.414 199.669 271.32 199.506 271.152C199.343 270.984 199.251 270.757 199.251 270.52C199.251 270.283 199.343 270.056 199.506 269.888C199.669 269.72 199.89 269.626 200.121 269.626H355.477C355.707 269.626 355.929 269.72 356.092 269.888C356.255 270.056 356.346 270.283 356.346 270.52C356.346 270.757 356.255 270.984 356.092 271.152C355.929 271.32 355.707 271.414 355.477 271.414Z" fill="#3F3D56"/>
<path d="M711.131 623H0.869353C0.638786 623 0.417662 622.906 0.254627 622.738C0.0915916 622.571 0 622.343 0 622.106C0 621.869 0.0915916 621.642 0.254627 621.474C0.417662 621.307 0.638786 621.212 0.869353 621.212H711.131C711.361 621.212 711.582 621.307 711.745 621.474C711.908 621.642 712 621.869 712 622.106C712 622.343 711.908 622.571 711.745 622.738C711.582 622.906 711.361 623 711.131 623Z" fill="#3F3D56"/>
</g>
<defs>
<clipPath id="clip0_67_1339">
<rect width="712" height="623" fill="white"/>
</clipPath>
</defs>
</svg>
