<svg width="205" height="62" viewBox="0 0 205 62" fill="none" xmlns="http://www.w3.org/2000/svg">
<path d="M193.943 25.4652L193.951 25.4566L193.958 25.4477C194.307 25.0114 194.453 24.4912 194.413 23.9486C194.371 23.3861 194.126 22.8817 193.674 22.5161L186.58 16.6212V3.19225C186.58 2.63822 186.393 2.11322 185.981 1.70167C185.569 1.29011 185.044 1.10219 184.49 1.10219H177.95C177.396 1.10219 176.871 1.29011 176.46 1.70166C176.048 2.11322 175.86 2.63822 175.86 3.19225V7.69524L169.19 2.11848L169.19 2.1184L169.179 2.10956C168.262 1.36416 167.172 1 165.96 1C164.747 1 163.657 1.36416 162.74 2.10955L162.74 2.1095L162.731 2.11736L138.245 22.5164C137.793 22.882 137.548 23.3863 137.507 23.9486C137.466 24.4912 137.612 25.0114 137.961 25.4477L137.968 25.4565L137.976 25.4652L140.088 27.986L140.097 27.9972L140.107 28.0081C140.458 28.403 140.915 28.6295 141.418 28.7068L141.452 28.7121L141.487 28.715C142.026 28.76 142.52 28.5933 142.942 28.3121L142.965 28.2969L142.986 28.2806L165.96 11.0839L188.908 28.2619C189.303 28.5921 189.78 28.7185 190.247 28.7185H190.349H190.426L190.502 28.7068C191.004 28.6295 191.461 28.403 191.812 28.0081L191.822 27.9972L191.831 27.986L193.943 25.4652Z" fill="white" stroke="#1E40AF" stroke-width="2"/>
<path d="M10.5 53.44C10.5 53.84 9.24667 54.04 6.74 54.04L4.5 53.92C3.16667 53.8133 2.5 53.6267 2.5 53.36V26.52C2.5 26.0667 3.83333 25.84 6.5 25.84C9.16667 25.84 10.5 26.0667 10.5 26.52V36.76L15.38 26.52C15.5667 26.1467 16.6333 25.96 18.58 25.96C22.1267 25.96 23.9933 26.2667 24.18 26.88C24.18 26.9333 24.1667 26.9867 24.14 27.04L17.18 39.6L25.26 50.76C25.26 50.8133 25.0067 51.04 24.5 51.44C23.2733 52.5067 21.8333 53.3467 20.18 53.96C19.6733 54.1467 19.1667 54.24 18.66 54.24L17.7 54.16C16.8467 53.9467 16.18 53.4 15.7 52.52L11.14 43.8H10.5V53.44ZM28.7447 39.48C27.998 38.1467 27.6247 37.0667 27.6247 36.24C27.6247 35.3867 27.8514 34.84 28.3047 34.6C29.8247 33.9333 31.9047 33.6 34.5447 33.6C37.2114 33.6 39.0914 34.2267 40.1847 35.48C41.278 36.7067 41.8247 38.5333 41.8247 40.96V47.28H43.1847C43.638 47.28 43.9847 47.5467 44.2247 48.08C44.4914 48.6133 44.6247 49.3467 44.6247 50.28C44.6247 51.2133 44.3847 52.1333 43.9047 53.04C43.4514 53.9467 42.8247 54.4 42.0247 54.4C40.5847 54.4 39.4247 54.0133 38.5447 53.24C38.1447 52.92 37.838 52.5333 37.6247 52.08C36.398 53.6267 34.4914 54.4 31.9047 54.4C29.958 54.4 28.318 53.7067 26.9847 52.32C25.6514 50.9333 24.9847 49.2933 24.9847 47.4C24.9847 43.0533 27.5847 40.88 32.7847 40.88H34.9847V40.48C34.9847 39.7867 34.8647 39.3467 34.6247 39.16C34.4114 38.9467 33.8914 38.84 33.0647 38.84C32.0514 38.84 30.6114 39.0533 28.7447 39.48ZM31.9447 46.84C31.9447 47.4267 32.1047 47.88 32.4247 48.2C32.7447 48.4933 33.1447 48.64 33.6247 48.64C34.1314 48.64 34.5847 48.44 34.9847 48.04V44.96H33.8647C32.5847 44.96 31.9447 45.5867 31.9447 46.84ZM64.1288 53.8C64.1288 53.9867 62.9821 54.08 60.6888 54.08C58.4221 54.08 57.2888 53.96 57.2888 53.72V42.08C57.2888 40.7467 56.8488 40.08 55.9688 40.08C55.5154 40.08 54.9154 40.3733 54.1688 40.96V53.76C54.1688 54.0267 53.0221 54.16 50.7288 54.16C48.4621 54.16 47.3288 54.0133 47.3288 53.72V40.64H46.3288C45.4488 40.64 45.0088 39.72 45.0088 37.88C45.0088 37.0533 45.1688 36.2133 45.4888 35.36C45.9154 34.1867 46.6088 33.6 47.5688 33.6C48.5288 33.6 49.4488 33.8533 50.3288 34.36C51.2354 34.8667 51.7821 35.3467 51.9688 35.8C53.6221 34.3333 55.4488 33.6 57.4488 33.6C59.4754 33.6 61.1021 34.2267 62.3288 35.48C63.7688 34.2267 65.5021 33.6 67.5288 33.6C71.9288 33.6 74.1288 36.28 74.1288 41.64V53.8C74.1288 53.9867 72.9821 54.08 70.6888 54.08C68.4221 54.08 67.2888 53.96 67.2888 53.72V42.08C67.2888 40.7467 66.8488 40.08 65.9688 40.08C65.4888 40.08 64.8754 40.3733 64.1288 40.96V53.8ZM85.2522 61.28C85.2522 61.4667 84.1055 61.56 81.8122 61.56C79.5455 61.56 78.4122 61.4667 78.4122 61.28V40.68H77.0522C76.4122 40.68 75.9722 40.0933 75.7322 38.92C75.6522 38.5467 75.6122 38.0667 75.6122 37.48C75.6122 36.8933 75.7989 36.2 76.1722 35.4C76.7055 34.2267 77.5589 33.64 78.7322 33.64C79.5055 33.64 80.2122 33.8267 80.8522 34.2C81.5189 34.5467 81.9722 34.88 82.2122 35.2C82.4789 35.4933 82.6122 35.6667 82.6122 35.72C84.3989 34.3333 86.3322 33.64 88.4122 33.64C90.4922 33.64 92.2789 34.4533 93.7722 36.08C95.2655 37.68 96.0122 40.1733 96.0122 43.56C96.0122 46.92 95.2655 49.5333 93.7722 51.4C92.2789 53.24 90.3855 54.16 88.0922 54.16C87.0522 54.16 86.1055 54.1067 85.2522 54V61.28ZM86.8922 40.64C86.4389 40.64 85.9989 40.7867 85.5722 41.08V48.16C86.0255 48.2133 86.3855 48.24 86.6522 48.24C86.9455 48.24 87.1722 48.24 87.3322 48.24C88.4255 48.1333 88.9722 46.7333 88.9722 44.04C88.9722 41.7733 88.2789 40.64 86.8922 40.64ZM97.7597 34.24C97.7597 33.9467 98.9064 33.8 101.2 33.8C103.493 33.8 104.64 33.9467 104.64 34.24V45.92C104.64 47.2533 105.066 47.92 105.92 47.92C106.56 47.92 107.28 47.64 108.08 47.08V34.24C108.08 33.9733 109.213 33.84 111.48 33.84C113.746 33.84 114.88 33.9733 114.88 34.24V47.36H115.92C116.826 47.36 117.28 48.2267 117.28 49.96C117.28 50.84 117.093 51.7333 116.72 52.64C116.186 53.8133 115.466 54.4 114.56 54.4C112.773 54.4 111.453 53.6667 110.6 52.2L110.56 52.24C108.933 53.68 107.186 54.4 105.32 54.4C102.733 54.4 100.826 53.76 99.5997 52.48C98.373 51.1733 97.7597 49.0267 97.7597 46.04V34.24ZM127.197 53.76C127.197 53.9467 126.237 54.04 124.317 54.04C121.651 53.96 120.317 53.8133 120.317 53.6V40.64H119.277C118.584 40.64 118.131 40.0533 117.917 38.88C117.864 38.5333 117.837 38.1867 117.837 37.84C117.837 37.0133 117.997 36.1867 118.317 35.36C118.797 34.1867 119.544 33.6 120.557 33.6C121.571 33.6 122.477 33.84 123.277 34.32C124.077 34.8 124.611 35.28 124.877 35.76C126.557 34.32 128.557 33.6 130.877 33.6C133.197 33.6 134.877 34.2267 135.917 35.48C136.957 36.7333 137.477 38.7867 137.477 41.64V53.64C137.477 53.96 136.331 54.12 134.037 54.12C131.771 54.12 130.637 53.96 130.637 53.64V42.08C130.637 40.7467 130.171 40.08 129.237 40.08C128.971 40.08 128.597 40.2 128.117 40.44C127.637 40.6533 127.331 40.8133 127.197 40.92V53.76ZM147.349 54C144.762 54 142.762 53.1733 141.349 51.52C139.935 49.84 139.229 47.3733 139.229 44.12C139.229 40.84 140.149 38.28 141.989 36.44C143.855 34.5733 146.322 33.64 149.389 33.64C152.482 33.64 155.029 34.32 157.029 35.68V55.6C157.029 57.5733 156.229 59.08 154.629 60.12C153.029 61.1867 150.975 61.72 148.469 61.72C145.962 61.72 143.722 61.4 141.749 60.76C141.482 60.12 141.349 59.5467 141.349 59.04C141.349 57.3333 141.629 56.08 142.189 55.28C143.975 56.0533 145.882 56.44 147.909 56.44C149.375 56.44 150.109 55.92 150.109 54.88V53.68C148.962 53.8933 148.042 54 147.349 54ZM149.189 40.16C147.402 40.16 146.509 41.5067 146.509 44.2C146.509 45.88 146.855 46.9733 147.549 47.48C148.002 47.8267 148.455 48 148.909 48C149.362 48 149.762 47.96 150.109 47.88V40.28C149.789 40.2 149.482 40.16 149.189 40.16ZM167.934 53.44C167.934 53.84 166.68 54.04 164.174 54.04L161.934 53.92C160.6 53.8133 159.934 53.6267 159.934 53.36V26.52C159.934 26.0667 161.267 25.84 163.934 25.84C166.6 25.84 167.934 26.0667 167.934 26.52V36.76L172.814 26.52C173 26.1467 174.067 25.96 176.014 25.96C179.56 25.96 181.427 26.2667 181.614 26.88C181.614 26.9333 181.6 26.9867 181.574 27.04L174.614 39.6L182.694 50.76C182.694 50.8133 182.44 51.04 181.934 51.44C180.707 52.5067 179.267 53.3467 177.614 53.96C177.107 54.1467 176.6 54.24 176.094 54.24L175.134 54.16C174.28 53.9467 173.614 53.4 173.134 52.52L168.574 43.8H167.934V53.44ZM183.458 34.24C183.458 33.9467 184.605 33.8 186.898 33.8C189.192 33.8 190.338 33.9467 190.338 34.24V45.92C190.338 47.2533 190.765 47.92 191.618 47.92C192.258 47.92 192.978 47.64 193.778 47.08V34.24C193.778 33.9733 194.912 33.84 197.178 33.84C199.445 33.84 200.578 33.9733 200.578 34.24V47.36H201.618C202.525 47.36 202.978 48.2267 202.978 49.96C202.978 50.84 202.792 51.7333 202.418 52.64C201.885 53.8133 201.165 54.4 200.258 54.4C198.472 54.4 197.152 53.6667 196.298 52.2L196.258 52.24C194.632 53.68 192.885 54.4 191.018 54.4C188.432 54.4 186.525 53.76 185.298 52.48C184.072 51.1733 183.458 49.0267 183.458 46.04V34.24Z" fill="#1E40AF"/>
</svg>
